solid STL generated by MeshLab
  facet normal  4.469783e-01 -8.945448e-01  0.000000e+00
    outer loop
      vertex   8.208237e+00 -2.000000e+00 -1.310000e-01
      vertex   8.674129e+00 -1.767207e+00 -1.310000e-01
      vertex   8.208237e+00 -2.000000e+00  6.190000e-01
    endloop
  endfacet
  facet normal  4.469783e-01 -8.945448e-01  0.000000e+00
    outer loop
      vertex   8.208237e+00 -2.000000e+00  6.190000e-01
      vertex   8.674129e+00 -1.767207e+00 -1.310000e-01
      vertex   8.674129e+00 -1.767207e+00  6.190000e-01
    endloop
  endfacet
  facet normal  6.514369e-01 -7.587028e-01  0.000000e+00
    outer loop
      vertex   8.674129e+00 -1.767207e+00  6.190000e-01
      vertex   9.069273e+00 -1.427929e+00 -1.310000e-01
      vertex   9.069273e+00 -1.427929e+00  6.190000e-01
    endloop
  endfacet
  facet normal  6.514369e-01 -7.587028e-01  0.000000e+00
    outer loop
      vertex   8.674129e+00 -1.767207e+00 -1.310000e-01
      vertex   9.069273e+00 -1.427929e+00 -1.310000e-01
      vertex   8.674129e+00 -1.767207e+00  6.190000e-01
    endloop
  endfacet
  facet normal  8.166409e-01 -5.771462e-01  0.000000e+00
    outer loop
      vertex   9.069273e+00 -1.427929e+00  6.190000e-01
      vertex   9.369860e+00 -1.002610e+00 -1.310000e-01
      vertex   9.369860e+00 -1.002610e+00  6.190000e-01
    endloop
  endfacet
  facet normal  8.166409e-01 -5.771462e-01  0.000000e+00
    outer loop
      vertex   9.069273e+00 -1.427929e+00 -1.310000e-01
      vertex   9.369860e+00 -1.002610e+00 -1.310000e-01
      vertex   9.069273e+00 -1.427929e+00  6.190000e-01
    endloop
  endfacet
  facet normal  9.326396e-01 -3.608094e-01  0.000000e+00
    outer loop
      vertex   9.369860e+00 -1.002610e+00  6.190000e-01
      vertex   9.557775e+00 -5.168774e-01 -1.310000e-01
      vertex   9.557775e+00 -5.168774e-01  6.190000e-01
    endloop
  endfacet
  facet normal  9.326396e-01 -3.608094e-01  0.000000e+00
    outer loop
      vertex   9.369860e+00 -1.002610e+00 -1.310000e-01
      vertex   9.557775e+00 -5.168774e-01 -1.310000e-01
      vertex   9.369860e+00 -1.002610e+00  6.190000e-01
    endloop
  endfacet
  facet normal  9.924393e-01 -1.227362e-01  0.000000e+00
    outer loop
      vertex   9.557775e+00 -5.168774e-01  6.190000e-01
      vertex   9.621697e+00 -2.404112e-15 -1.310000e-01
      vertex   9.621697e+00 -2.404112e-15  6.190000e-01
    endloop
  endfacet
  facet normal  9.924393e-01 -1.227362e-01  0.000000e+00
    outer loop
      vertex   9.557775e+00 -5.168774e-01 -1.310000e-01
      vertex   9.621697e+00 -2.404112e-15 -1.310000e-01
      vertex   9.557775e+00 -5.168774e-01  6.190000e-01
    endloop
  endfacet
  facet normal  9.924393e-01  1.227362e-01  0.000000e+00
    outer loop
      vertex   9.621697e+00 -2.404112e-15  6.190000e-01
      vertex   9.557775e+00  5.168774e-01 -1.310000e-01
      vertex   9.557775e+00  5.168774e-01  6.190000e-01
    endloop
  endfacet
  facet normal  9.924393e-01  1.227362e-01 -0.000000e+00
    outer loop
      vertex   9.621697e+00 -2.404112e-15 -1.310000e-01
      vertex   9.557775e+00  5.168774e-01 -1.310000e-01
      vertex   9.621697e+00 -2.404112e-15  6.190000e-01
    endloop
  endfacet
  facet normal  9.326396e-01  3.608094e-01  0.000000e+00
    outer loop
      vertex   9.557775e+00  5.168774e-01  6.190000e-01
      vertex   9.369860e+00  1.002610e+00 -1.310000e-01
      vertex   9.369860e+00  1.002610e+00  6.190000e-01
    endloop
  endfacet
  facet normal  9.326396e-01  3.608094e-01 -0.000000e+00
    outer loop
      vertex   9.557775e+00  5.168774e-01 -1.310000e-01
      vertex   9.369860e+00  1.002610e+00 -1.310000e-01
      vertex   9.557775e+00  5.168774e-01  6.190000e-01
    endloop
  endfacet
  facet normal  8.166409e-01  5.771462e-01  0.000000e+00
    outer loop
      vertex   9.369860e+00  1.002610e+00  6.190000e-01
      vertex   9.069273e+00  1.427929e+00 -1.310000e-01
      vertex   9.069273e+00  1.427929e+00  6.190000e-01
    endloop
  endfacet
  facet normal  8.166409e-01  5.771462e-01 -0.000000e+00
    outer loop
      vertex   9.369860e+00  1.002610e+00 -1.310000e-01
      vertex   9.069273e+00  1.427929e+00 -1.310000e-01
      vertex   9.369860e+00  1.002610e+00  6.190000e-01
    endloop
  endfacet
  facet normal  6.514369e-01  7.587028e-01  0.000000e+00
    outer loop
      vertex   9.069273e+00  1.427929e+00  6.190000e-01
      vertex   8.674129e+00  1.767207e+00 -1.310000e-01
      vertex   8.674129e+00  1.767207e+00  6.190000e-01
    endloop
  endfacet
  facet normal  6.514369e-01  7.587028e-01 -0.000000e+00
    outer loop
      vertex   9.069273e+00  1.427929e+00 -1.310000e-01
      vertex   8.674129e+00  1.767207e+00 -1.310000e-01
      vertex   9.069273e+00  1.427929e+00  6.190000e-01
    endloop
  endfacet
  facet normal  4.469783e-01  8.945448e-01  0.000000e+00
    outer loop
      vertex   8.674129e+00  1.767207e+00  6.190000e-01
      vertex   8.208237e+00  2.000000e+00 -1.310000e-01
      vertex   8.208237e+00  2.000000e+00  6.190000e-01
    endloop
  endfacet
  facet normal  4.469783e-01  8.945448e-01 -0.000000e+00
    outer loop
      vertex   8.674129e+00  1.767207e+00 -1.310000e-01
      vertex   8.208237e+00  2.000000e+00 -1.310000e-01
      vertex   8.674129e+00  1.767207e+00  6.190000e-01
    endloop
  endfacet
  facet normal  3.338068e-01  9.426414e-01 -0.000000e+00
    outer loop
      vertex   8.208237e+00  2.000000e+00 -1.310000e-01
      vertex  -7.000000e+00  7.385519e+00 -1.310000e-01
      vertex   8.208237e+00  2.000000e+00  6.190000e-01
    endloop
  endfacet
  facet normal  3.338068e-01  9.426414e-01  0.000000e+00
    outer loop
      vertex   8.208237e+00  2.000000e+00  6.190000e-01
      vertex  -7.000000e+00  7.385519e+00 -1.310000e-01
      vertex  -7.000000e+00  7.385519e+00  6.190000e-01
    endloop
  endfacet
  facet normal -1.000000e+00  0.000000e+00  0.000000e+00
    outer loop
      vertex  -7.000000e+00  7.385519e+00 -1.310000e-01
      vertex  -7.000000e+00 -7.385519e+00 -1.310000e-01
      vertex  -7.000000e+00 -7.385519e+00  6.190000e-01
    endloop
  endfacet
  facet normal -1.000000e+00  0.000000e+00  0.000000e+00
    outer loop
      vertex  -7.000000e+00  7.385519e+00 -1.310000e-01
      vertex  -7.000000e+00 -7.385519e+00  6.190000e-01
      vertex  -7.000000e+00  7.385519e+00  6.190000e-01
    endloop
  endfacet
  facet normal  3.338068e-01 -9.426414e-01  0.000000e+00
    outer loop
      vertex  -7.000000e+00 -7.385519e+00 -1.310000e-01
      vertex   8.208237e+00 -2.000000e+00 -1.310000e-01
      vertex   8.208237e+00 -2.000000e+00  6.190000e-01
    endloop
  endfacet
  facet normal  3.338068e-01 -9.426414e-01  0.000000e+00
    outer loop
      vertex  -7.000000e+00 -7.385519e+00 -1.310000e-01
      vertex   8.208237e+00 -2.000000e+00  6.190000e-01
      vertex  -7.000000e+00 -7.385519e+00  6.190000e-01
    endloop
  endfacet
  facet normal  0.000000e+00  0.000000e+00 -1.000000e+00
    outer loop
      vertex   8.208237e+00 -2.000000e+00 -1.310000e-01
      vertex   9.069273e+00 -1.427929e+00 -1.310000e-01
      vertex   8.674129e+00 -1.767207e+00 -1.310000e-01
    endloop
  endfacet
  facet normal  0.000000e+00  0.000000e+00 -1.000000e+00
    outer loop
      vertex   8.208237e+00 -2.000000e+00 -1.310000e-01
      vertex   9.369860e+00 -1.002610e+00 -1.310000e-01
      vertex   9.069273e+00 -1.427929e+00 -1.310000e-01
    endloop
  endfacet
  facet normal  0.000000e+00  0.000000e+00 -1.000000e+00
    outer loop
      vertex   8.208237e+00 -2.000000e+00 -1.310000e-01
      vertex   9.557775e+00 -5.168774e-01 -1.310000e-01
      vertex   9.369860e+00 -1.002610e+00 -1.310000e-01
    endloop
  endfacet
  facet normal  0.000000e+00  0.000000e+00 -1.000000e+00
    outer loop
      vertex  -7.000000e+00  7.385519e+00 -1.310000e-01
      vertex   8.208237e+00  2.000000e+00 -1.310000e-01
      vertex  -7.000000e+00 -7.385519e+00 -1.310000e-01
    endloop
  endfacet
  facet normal  0.000000e+00  0.000000e+00 -1.000000e+00
    outer loop
      vertex  -7.000000e+00 -7.385519e+00 -1.310000e-01
      vertex   8.208237e+00  2.000000e+00 -1.310000e-01
      vertex   8.208237e+00 -2.000000e+00 -1.310000e-01
    endloop
  endfacet
  facet normal  0.000000e+00  0.000000e+00 -1.000000e+00
    outer loop
      vertex   9.621697e+00 -2.404112e-15 -1.310000e-01
      vertex   9.369860e+00  1.002610e+00 -1.310000e-01
      vertex   9.557775e+00  5.168774e-01 -1.310000e-01
    endloop
  endfacet
  facet normal  0.000000e+00  0.000000e+00 -1.000000e+00
    outer loop
      vertex   8.208237e+00 -2.000000e+00 -1.310000e-01
      vertex   8.674129e+00  1.767207e+00 -1.310000e-01
      vertex   9.557775e+00 -5.168774e-01 -1.310000e-01
    endloop
  endfacet
  facet normal  0.000000e+00  0.000000e+00 -1.000000e+00
    outer loop
      vertex   8.208237e+00  2.000000e+00 -1.310000e-01
      vertex   8.674129e+00  1.767207e+00 -1.310000e-01
      vertex   8.208237e+00 -2.000000e+00 -1.310000e-01
    endloop
  endfacet
  facet normal  0.000000e+00  0.000000e+00 -1.000000e+00
    outer loop
      vertex   9.557775e+00 -5.168774e-01 -1.310000e-01
      vertex   9.069273e+00  1.427929e+00 -1.310000e-01
      vertex   9.621697e+00 -2.404112e-15 -1.310000e-01
    endloop
  endfacet
  facet normal  0.000000e+00  0.000000e+00 -1.000000e+00
    outer loop
      vertex   9.621697e+00 -2.404112e-15 -1.310000e-01
      vertex   9.069273e+00  1.427929e+00 -1.310000e-01
      vertex   9.369860e+00  1.002610e+00 -1.310000e-01
    endloop
  endfacet
  facet normal  0.000000e+00  0.000000e+00 -1.000000e+00
    outer loop
      vertex   8.674129e+00  1.767207e+00 -1.310000e-01
      vertex   9.069273e+00  1.427929e+00 -1.310000e-01
      vertex   9.557775e+00 -5.168774e-01 -1.310000e-01
    endloop
  endfacet
  facet normal  0.000000e+00  0.000000e+00  1.000000e+00
    outer loop
      vertex   9.069273e+00 -1.427929e+00  6.190000e-01
      vertex   8.208237e+00 -2.000000e+00  6.190000e-01
      vertex   8.674129e+00 -1.767207e+00  6.190000e-01
    endloop
  endfacet
  facet normal  0.000000e+00  0.000000e+00  1.000000e+00
    outer loop
      vertex   9.369860e+00 -1.002610e+00  6.190000e-01
      vertex   8.208237e+00 -2.000000e+00  6.190000e-01
      vertex   9.069273e+00 -1.427929e+00  6.190000e-01
    endloop
  endfacet
  facet normal  0.000000e+00  0.000000e+00  1.000000e+00
    outer loop
      vertex   9.557775e+00 -5.168774e-01  6.190000e-01
      vertex   8.208237e+00 -2.000000e+00  6.190000e-01
      vertex   9.369860e+00 -1.002610e+00  6.190000e-01
    endloop
  endfacet
  facet normal  0.000000e+00  0.000000e+00  1.000000e+00
    outer loop
      vertex   8.208237e+00  2.000000e+00  6.190000e-01
      vertex  -7.000000e+00  7.385519e+00  6.190000e-01
      vertex  -7.000000e+00 -7.385519e+00  6.190000e-01
    endloop
  endfacet
  facet normal  0.000000e+00  0.000000e+00  1.000000e+00
    outer loop
      vertex   8.208237e+00  2.000000e+00  6.190000e-01
      vertex  -7.000000e+00 -7.385519e+00  6.190000e-01
      vertex   8.208237e+00 -2.000000e+00  6.190000e-01
    endloop
  endfacet
  facet normal  0.000000e+00  0.000000e+00  1.000000e+00
    outer loop
      vertex   9.369860e+00  1.002610e+00  6.190000e-01
      vertex   9.621697e+00 -2.404112e-15  6.190000e-01
      vertex   9.557775e+00  5.168774e-01  6.190000e-01
    endloop
  endfacet
  facet normal  0.000000e+00  0.000000e+00  1.000000e+00
    outer loop
      vertex   8.674129e+00  1.767207e+00  6.190000e-01
      vertex   8.208237e+00 -2.000000e+00  6.190000e-01
      vertex   9.557775e+00 -5.168774e-01  6.190000e-01
    endloop
  endfacet
  facet normal  0.000000e+00  0.000000e+00  1.000000e+00
    outer loop
      vertex   8.674129e+00  1.767207e+00  6.190000e-01
      vertex   8.208237e+00  2.000000e+00  6.190000e-01
      vertex   8.208237e+00 -2.000000e+00  6.190000e-01
    endloop
  endfacet
  facet normal  0.000000e+00  0.000000e+00  1.000000e+00
    outer loop
      vertex   9.069273e+00  1.427929e+00  6.190000e-01
      vertex   9.557775e+00 -5.168774e-01  6.190000e-01
      vertex   9.621697e+00 -2.404112e-15  6.190000e-01
    endloop
  endfacet
  facet normal  0.000000e+00  0.000000e+00  1.000000e+00
    outer loop
      vertex   9.069273e+00  1.427929e+00  6.190000e-01
      vertex   9.621697e+00 -2.404112e-15  6.190000e-01
      vertex   9.369860e+00  1.002610e+00  6.190000e-01
    endloop
  endfacet
  facet normal  0.000000e+00  0.000000e+00  1.000000e+00
    outer loop
      vertex   9.069273e+00  1.427929e+00  6.190000e-01
      vertex   8.674129e+00  1.767207e+00  6.190000e-01
      vertex   9.557775e+00 -5.168774e-01  6.190000e-01
    endloop
  endfacet
endsolid vcg
