solid STL generated by MeshLab
  facet normal  4.469787e-01 -8.945445e-01  0.000000e+00
    outer loop
      vertex   1.006236e+01 -3.000000e+00 -2.560000e-01
      vertex   1.076119e+01 -2.650810e+00 -2.560000e-01
      vertex   1.006236e+01 -3.000000e+00  7.440000e-01
    endloop
  endfacet
  facet normal  4.469787e-01 -8.945445e-01  0.000000e+00
    outer loop
      vertex   1.006236e+01 -3.000000e+00  7.440000e-01
      vertex   1.076119e+01 -2.650810e+00 -2.560000e-01
      vertex   1.076119e+01 -2.650810e+00  7.440000e-01
    endloop
  endfacet
  facet normal  6.514363e-01 -7.587033e-01  0.000000e+00
    outer loop
      vertex   1.076119e+01 -2.650810e+00  7.440000e-01
      vertex   1.135391e+01 -2.141893e+00 -2.560000e-01
      vertex   1.135391e+01 -2.141893e+00  7.440000e-01
    endloop
  endfacet
  facet normal  6.514363e-01 -7.587033e-01  0.000000e+00
    outer loop
      vertex   1.076119e+01 -2.650810e+00 -2.560000e-01
      vertex   1.135391e+01 -2.141893e+00 -2.560000e-01
      vertex   1.076119e+01 -2.650810e+00  7.440000e-01
    endloop
  endfacet
  facet normal  8.166419e-01 -5.771446e-01  0.000000e+00
    outer loop
      vertex   1.135391e+01 -2.141893e+00  7.440000e-01
      vertex   1.180479e+01 -1.503915e+00 -2.560000e-01
      vertex   1.180479e+01 -1.503915e+00  7.440000e-01
    endloop
  endfacet
  facet normal  8.166419e-01 -5.771446e-01  0.000000e+00
    outer loop
      vertex   1.135391e+01 -2.141893e+00 -2.560000e-01
      vertex   1.180479e+01 -1.503915e+00 -2.560000e-01
      vertex   1.135391e+01 -2.141893e+00  7.440000e-01
    endloop
  endfacet
  facet normal  9.326390e-01 -3.608110e-01  0.000000e+00
    outer loop
      vertex   1.180479e+01 -1.503915e+00  7.440000e-01
      vertex   1.208666e+01 -7.753160e-01 -2.560000e-01
      vertex   1.208666e+01 -7.753160e-01  7.440000e-01
    endloop
  endfacet
  facet normal  9.326390e-01 -3.608110e-01  0.000000e+00
    outer loop
      vertex   1.180479e+01 -1.503915e+00 -2.560000e-01
      vertex   1.208666e+01 -7.753160e-01 -2.560000e-01
      vertex   1.180479e+01 -1.503915e+00  7.440000e-01
    endloop
  endfacet
  facet normal  9.924394e-01 -1.227350e-01  0.000000e+00
    outer loop
      vertex   1.208666e+01 -7.753160e-01  7.440000e-01
      vertex   1.218255e+01 -3.606168e-15 -2.560000e-01
      vertex   1.218255e+01 -3.606168e-15  7.440000e-01
    endloop
  endfacet
  facet normal  9.924394e-01 -1.227350e-01  0.000000e+00
    outer loop
      vertex   1.208666e+01 -7.753160e-01 -2.560000e-01
      vertex   1.218255e+01 -3.606168e-15 -2.560000e-01
      vertex   1.208666e+01 -7.753160e-01  7.440000e-01
    endloop
  endfacet
  facet normal  9.924394e-01  1.227350e-01  0.000000e+00
    outer loop
      vertex   1.218255e+01 -3.606168e-15  7.440000e-01
      vertex   1.208666e+01  7.753160e-01 -2.560000e-01
      vertex   1.208666e+01  7.753160e-01  7.440000e-01
    endloop
  endfacet
  facet normal  9.924394e-01  1.227350e-01 -0.000000e+00
    outer loop
      vertex   1.218255e+01 -3.606168e-15 -2.560000e-01
      vertex   1.208666e+01  7.753160e-01 -2.560000e-01
      vertex   1.218255e+01 -3.606168e-15  7.440000e-01
    endloop
  endfacet
  facet normal  9.326390e-01  3.608110e-01  0.000000e+00
    outer loop
      vertex   1.208666e+01  7.753160e-01  7.440000e-01
      vertex   1.180479e+01  1.503915e+00 -2.560000e-01
      vertex   1.180479e+01  1.503915e+00  7.440000e-01
    endloop
  endfacet
  facet normal  9.326390e-01  3.608110e-01 -0.000000e+00
    outer loop
      vertex   1.208666e+01  7.753160e-01 -2.560000e-01
      vertex   1.180479e+01  1.503915e+00 -2.560000e-01
      vertex   1.208666e+01  7.753160e-01  7.440000e-01
    endloop
  endfacet
  facet normal  8.166419e-01  5.771446e-01  0.000000e+00
    outer loop
      vertex   1.180479e+01  1.503915e+00  7.440000e-01
      vertex   1.135391e+01  2.141893e+00 -2.560000e-01
      vertex   1.135391e+01  2.141893e+00  7.440000e-01
    endloop
  endfacet
  facet normal  8.166419e-01  5.771446e-01 -0.000000e+00
    outer loop
      vertex   1.180479e+01  1.503915e+00 -2.560000e-01
      vertex   1.135391e+01  2.141893e+00 -2.560000e-01
      vertex   1.180479e+01  1.503915e+00  7.440000e-01
    endloop
  endfacet
  facet normal  6.514363e-01  7.587033e-01  0.000000e+00
    outer loop
      vertex   1.135391e+01  2.141893e+00  7.440000e-01
      vertex   1.076119e+01  2.650810e+00 -2.560000e-01
      vertex   1.076119e+01  2.650810e+00  7.440000e-01
    endloop
  endfacet
  facet normal  4.469787e-01  8.945445e-01  0.000000e+00
    outer loop
      vertex   1.076119e+01  2.650810e+00  7.440000e-01
      vertex   1.076119e+01  2.650810e+00 -2.560000e-01
      vertex   1.006236e+01  3.000000e+00  7.440000e-01
    endloop
  endfacet
  facet normal  6.514363e-01  7.587033e-01 -0.000000e+00
    outer loop
      vertex   1.135391e+01  2.141893e+00 -2.560000e-01
      vertex   1.076119e+01  2.650810e+00 -2.560000e-01
      vertex   1.135391e+01  2.141893e+00  7.440000e-01
    endloop
  endfacet
  facet normal  4.469787e-01  8.945445e-01  0.000000e+00
    outer loop
      vertex   1.076119e+01  2.650810e+00 -2.560000e-01
      vertex   1.006236e+01  3.000000e+00 -2.560000e-01
      vertex   1.006236e+01  3.000000e+00  7.440000e-01
    endloop
  endfacet
  facet normal  3.338068e-01  9.426414e-01 -0.000000e+00
    outer loop
      vertex   1.006236e+01  3.000000e+00 -2.560000e-01
      vertex  -1.200000e+01  1.081269e+01 -2.560000e-01
      vertex   1.006236e+01  3.000000e+00  7.440000e-01
    endloop
  endfacet
  facet normal  3.338068e-01  9.426414e-01  0.000000e+00
    outer loop
      vertex   1.006236e+01  3.000000e+00  7.440000e-01
      vertex  -1.200000e+01  1.081269e+01 -2.560000e-01
      vertex  -1.200000e+01  1.081269e+01  7.440000e-01
    endloop
  endfacet
  facet normal -1.000000e+00  0.000000e+00  0.000000e+00
    outer loop
      vertex  -1.200000e+01  1.081269e+01 -2.560000e-01
      vertex  -1.200000e+01 -1.081269e+01  7.440000e-01
      vertex  -1.200000e+01  1.081269e+01  7.440000e-01
    endloop
  endfacet
  facet normal -1.000000e+00  0.000000e+00  0.000000e+00
    outer loop
      vertex  -1.200000e+01  1.081269e+01 -2.560000e-01
      vertex  -1.200000e+01 -1.081269e+01 -2.560000e-01
      vertex  -1.200000e+01 -1.081269e+01  7.440000e-01
    endloop
  endfacet
  facet normal  3.338068e-01 -9.426414e-01  0.000000e+00
    outer loop
      vertex  -1.200000e+01 -1.081269e+01 -2.560000e-01
      vertex   1.006236e+01 -3.000000e+00 -2.560000e-01
      vertex   1.006236e+01 -3.000000e+00  7.440000e-01
    endloop
  endfacet
  facet normal  3.338068e-01 -9.426414e-01  0.000000e+00
    outer loop
      vertex  -1.200000e+01 -1.081269e+01 -2.560000e-01
      vertex   1.006236e+01 -3.000000e+00  7.440000e-01
      vertex  -1.200000e+01 -1.081269e+01  7.440000e-01
    endloop
  endfacet
  facet normal  0.000000e+00  0.000000e+00 -1.000000e+00
    outer loop
      vertex   1.076119e+01 -2.650810e+00 -2.560000e-01
      vertex   1.208666e+01 -7.753160e-01 -2.560000e-01
      vertex   1.135391e+01 -2.141893e+00 -2.560000e-01
    endloop
  endfacet
  facet normal  0.000000e+00  0.000000e+00 -1.000000e+00
    outer loop
      vertex   1.135391e+01 -2.141893e+00 -2.560000e-01
      vertex   1.208666e+01 -7.753160e-01 -2.560000e-01
      vertex   1.180479e+01 -1.503915e+00 -2.560000e-01
    endloop
  endfacet
  facet normal  0.000000e+00  0.000000e+00 -1.000000e+00
    outer loop
      vertex   1.208666e+01 -7.753160e-01 -2.560000e-01
      vertex   1.208666e+01  7.753160e-01 -2.560000e-01
      vertex   1.218255e+01 -3.606168e-15 -2.560000e-01
    endloop
  endfacet
  facet normal  0.000000e+00  0.000000e+00 -1.000000e+00
    outer loop
      vertex   1.006236e+01 -3.000000e+00 -2.560000e-01
      vertex   1.006236e+01  3.000000e+00 -2.560000e-01
      vertex   1.076119e+01 -2.650810e+00 -2.560000e-01
    endloop
  endfacet
  facet normal  0.000000e+00  0.000000e+00 -1.000000e+00
    outer loop
      vertex  -1.200000e+01  1.081269e+01 -2.560000e-01
      vertex   1.006236e+01  3.000000e+00 -2.560000e-01
      vertex  -1.200000e+01 -1.081269e+01 -2.560000e-01
    endloop
  endfacet
  facet normal  0.000000e+00  0.000000e+00 -1.000000e+00
    outer loop
      vertex  -1.200000e+01 -1.081269e+01 -2.560000e-01
      vertex   1.006236e+01  3.000000e+00 -2.560000e-01
      vertex   1.006236e+01 -3.000000e+00 -2.560000e-01
    endloop
  endfacet
  facet normal  0.000000e+00  0.000000e+00 -1.000000e+00
    outer loop
      vertex   1.208666e+01 -7.753160e-01 -2.560000e-01
      vertex   1.180479e+01  1.503915e+00 -2.560000e-01
      vertex   1.208666e+01  7.753160e-01 -2.560000e-01
    endloop
  endfacet
  facet normal  0.000000e+00  0.000000e+00 -1.000000e+00
    outer loop
      vertex   1.006236e+01  3.000000e+00 -2.560000e-01
      vertex   1.076119e+01  2.650810e+00 -2.560000e-01
      vertex   1.076119e+01 -2.650810e+00 -2.560000e-01
    endloop
  endfacet
  facet normal  0.000000e+00  0.000000e+00 -1.000000e+00
    outer loop
      vertex   1.076119e+01 -2.650810e+00 -2.560000e-01
      vertex   1.135391e+01  2.141893e+00 -2.560000e-01
      vertex   1.208666e+01 -7.753160e-01 -2.560000e-01
    endloop
  endfacet
  facet normal  0.000000e+00  0.000000e+00 -1.000000e+00
    outer loop
      vertex   1.076119e+01  2.650810e+00 -2.560000e-01
      vertex   1.135391e+01  2.141893e+00 -2.560000e-01
      vertex   1.076119e+01 -2.650810e+00 -2.560000e-01
    endloop
  endfacet
  facet normal  0.000000e+00  0.000000e+00 -1.000000e+00
    outer loop
      vertex   1.208666e+01 -7.753160e-01 -2.560000e-01
      vertex   1.135391e+01  2.141893e+00 -2.560000e-01
      vertex   1.180479e+01  1.503915e+00 -2.560000e-01
    endloop
  endfacet
  facet normal  0.000000e+00  0.000000e+00  1.000000e+00
    outer loop
      vertex   1.208666e+01 -7.753160e-01  7.440000e-01
      vertex   1.076119e+01 -2.650810e+00  7.440000e-01
      vertex   1.135391e+01 -2.141893e+00  7.440000e-01
    endloop
  endfacet
  facet normal  0.000000e+00  0.000000e+00  1.000000e+00
    outer loop
      vertex   1.208666e+01 -7.753160e-01  7.440000e-01
      vertex   1.135391e+01 -2.141893e+00  7.440000e-01
      vertex   1.180479e+01 -1.503915e+00  7.440000e-01
    endloop
  endfacet
  facet normal  0.000000e+00  0.000000e+00  1.000000e+00
    outer loop
      vertex   1.208666e+01  7.753160e-01  7.440000e-01
      vertex   1.208666e+01 -7.753160e-01  7.440000e-01
      vertex   1.218255e+01 -3.606168e-15  7.440000e-01
    endloop
  endfacet
  facet normal  0.000000e+00  0.000000e+00  1.000000e+00
    outer loop
      vertex   1.006236e+01  3.000000e+00  7.440000e-01
      vertex   1.006236e+01 -3.000000e+00  7.440000e-01
      vertex   1.076119e+01 -2.650810e+00  7.440000e-01
    endloop
  endfacet
  facet normal  0.000000e+00  0.000000e+00  1.000000e+00
    outer loop
      vertex   1.006236e+01  3.000000e+00  7.440000e-01
      vertex  -1.200000e+01  1.081269e+01  7.440000e-01
      vertex  -1.200000e+01 -1.081269e+01  7.440000e-01
    endloop
  endfacet
  facet normal  0.000000e+00  0.000000e+00  1.000000e+00
    outer loop
      vertex   1.006236e+01  3.000000e+00  7.440000e-01
      vertex  -1.200000e+01 -1.081269e+01  7.440000e-01
      vertex   1.006236e+01 -3.000000e+00  7.440000e-01
    endloop
  endfacet
  facet normal  0.000000e+00  0.000000e+00  1.000000e+00
    outer loop
      vertex   1.180479e+01  1.503915e+00  7.440000e-01
      vertex   1.208666e+01 -7.753160e-01  7.440000e-01
      vertex   1.208666e+01  7.753160e-01  7.440000e-01
    endloop
  endfacet
  facet normal  0.000000e+00  0.000000e+00  1.000000e+00
    outer loop
      vertex   1.076119e+01  2.650810e+00  7.440000e-01
      vertex   1.006236e+01  3.000000e+00  7.440000e-01
      vertex   1.076119e+01 -2.650810e+00  7.440000e-01
    endloop
  endfacet
  facet normal  0.000000e+00  0.000000e+00  1.000000e+00
    outer loop
      vertex   1.135391e+01  2.141893e+00  7.440000e-01
      vertex   1.076119e+01 -2.650810e+00  7.440000e-01
      vertex   1.208666e+01 -7.753160e-01  7.440000e-01
    endloop
  endfacet
  facet normal  0.000000e+00  0.000000e+00  1.000000e+00
    outer loop
      vertex   1.135391e+01  2.141893e+00  7.440000e-01
      vertex   1.076119e+01  2.650810e+00  7.440000e-01
      vertex   1.076119e+01 -2.650810e+00  7.440000e-01
    endloop
  endfacet
  facet normal  0.000000e+00  0.000000e+00  1.000000e+00
    outer loop
      vertex   1.135391e+01  2.141893e+00  7.440000e-01
      vertex   1.208666e+01 -7.753160e-01  7.440000e-01
      vertex   1.180479e+01  1.503915e+00  7.440000e-01
    endloop
  endfacet
endsolid vcg
