solid STL generated by MeshLab
  facet normal  4.469783e-01 -8.945448e-01  0.000000e+00
    outer loop
      vertex   6.854118e+00 -1.000000e+00 -6.000000e-03
      vertex   7.087065e+00 -8.836034e-01 -6.000000e-03
      vertex   6.854118e+00 -1.000000e+00  4.940000e-01
    endloop
  endfacet
  facet normal  4.469783e-01 -8.945448e-01  0.000000e+00
    outer loop
      vertex   6.854118e+00 -1.000000e+00  4.940000e-01
      vertex   7.087065e+00 -8.836034e-01 -6.000000e-03
      vertex   7.087065e+00 -8.836034e-01  4.940000e-01
    endloop
  endfacet
  facet normal  6.514369e-01 -7.587028e-01  0.000000e+00
    outer loop
      vertex   7.087065e+00 -8.836034e-01  4.940000e-01
      vertex   7.284636e+00 -7.139645e-01 -6.000000e-03
      vertex   7.284636e+00 -7.139645e-01  4.940000e-01
    endloop
  endfacet
  facet normal  6.514369e-01 -7.587028e-01  0.000000e+00
    outer loop
      vertex   7.087065e+00 -8.836034e-01 -6.000000e-03
      vertex   7.284636e+00 -7.139645e-01 -6.000000e-03
      vertex   7.087065e+00 -8.836034e-01  4.940000e-01
    endloop
  endfacet
  facet normal  8.166409e-01 -5.771462e-01  0.000000e+00
    outer loop
      vertex   7.284636e+00 -7.139645e-01  4.940000e-01
      vertex   7.434930e+00 -5.013049e-01 -6.000000e-03
      vertex   7.434930e+00 -5.013049e-01  4.940000e-01
    endloop
  endfacet
  facet normal  8.166409e-01 -5.771462e-01  0.000000e+00
    outer loop
      vertex   7.284636e+00 -7.139645e-01 -6.000000e-03
      vertex   7.434930e+00 -5.013049e-01 -6.000000e-03
      vertex   7.284636e+00 -7.139645e-01  4.940000e-01
    endloop
  endfacet
  facet normal  9.326396e-01 -3.608094e-01  0.000000e+00
    outer loop
      vertex   7.434930e+00 -5.013049e-01  4.940000e-01
      vertex   7.528887e+00 -2.584387e-01 -6.000000e-03
      vertex   7.528887e+00 -2.584387e-01  4.940000e-01
    endloop
  endfacet
  facet normal  9.326396e-01 -3.608094e-01  0.000000e+00
    outer loop
      vertex   7.434930e+00 -5.013049e-01 -6.000000e-03
      vertex   7.528887e+00 -2.584387e-01 -6.000000e-03
      vertex   7.434930e+00 -5.013049e-01  4.940000e-01
    endloop
  endfacet
  facet normal  9.924393e-01 -1.227362e-01  0.000000e+00
    outer loop
      vertex   7.528887e+00 -2.584387e-01  4.940000e-01
      vertex   7.560849e+00 -2.598330e-16 -6.000000e-03
      vertex   7.560849e+00 -2.598330e-16  4.940000e-01
    endloop
  endfacet
  facet normal  9.924393e-01 -1.227362e-01  0.000000e+00
    outer loop
      vertex   7.528887e+00 -2.584387e-01 -6.000000e-03
      vertex   7.560849e+00 -2.598330e-16 -6.000000e-03
      vertex   7.528887e+00 -2.584387e-01  4.940000e-01
    endloop
  endfacet
  facet normal  9.924393e-01  1.227362e-01  0.000000e+00
    outer loop
      vertex   7.560849e+00 -2.598330e-16  4.940000e-01
      vertex   7.528887e+00  2.584387e-01 -6.000000e-03
      vertex   7.528887e+00  2.584387e-01  4.940000e-01
    endloop
  endfacet
  facet normal  9.924393e-01  1.227362e-01 -0.000000e+00
    outer loop
      vertex   7.560849e+00 -2.598330e-16 -6.000000e-03
      vertex   7.528887e+00  2.584387e-01 -6.000000e-03
      vertex   7.560849e+00 -2.598330e-16  4.940000e-01
    endloop
  endfacet
  facet normal  9.326396e-01  3.608094e-01  0.000000e+00
    outer loop
      vertex   7.528887e+00  2.584387e-01  4.940000e-01
      vertex   7.434930e+00  5.013049e-01 -6.000000e-03
      vertex   7.434930e+00  5.013049e-01  4.940000e-01
    endloop
  endfacet
  facet normal  9.326396e-01  3.608094e-01 -0.000000e+00
    outer loop
      vertex   7.528887e+00  2.584387e-01 -6.000000e-03
      vertex   7.434930e+00  5.013049e-01 -6.000000e-03
      vertex   7.528887e+00  2.584387e-01  4.940000e-01
    endloop
  endfacet
  facet normal  8.166409e-01  5.771462e-01  0.000000e+00
    outer loop
      vertex   7.434930e+00  5.013049e-01  4.940000e-01
      vertex   7.284636e+00  7.139645e-01 -6.000000e-03
      vertex   7.284636e+00  7.139645e-01  4.940000e-01
    endloop
  endfacet
  facet normal  8.166409e-01  5.771462e-01 -0.000000e+00
    outer loop
      vertex   7.434930e+00  5.013049e-01 -6.000000e-03
      vertex   7.284636e+00  7.139645e-01 -6.000000e-03
      vertex   7.434930e+00  5.013049e-01  4.940000e-01
    endloop
  endfacet
  facet normal  6.514369e-01  7.587028e-01  0.000000e+00
    outer loop
      vertex   7.284636e+00  7.139645e-01  4.940000e-01
      vertex   7.087065e+00  8.836034e-01 -6.000000e-03
      vertex   7.087065e+00  8.836034e-01  4.940000e-01
    endloop
  endfacet
  facet normal  6.514369e-01  7.587028e-01 -0.000000e+00
    outer loop
      vertex   7.284636e+00  7.139645e-01 -6.000000e-03
      vertex   7.087065e+00  8.836034e-01 -6.000000e-03
      vertex   7.284636e+00  7.139645e-01  4.940000e-01
    endloop
  endfacet
  facet normal  4.469783e-01  8.945448e-01  0.000000e+00
    outer loop
      vertex   7.087065e+00  8.836034e-01  4.940000e-01
      vertex   6.854118e+00  1.000000e+00 -6.000000e-03
      vertex   6.854118e+00  1.000000e+00  4.940000e-01
    endloop
  endfacet
  facet normal  4.469783e-01  8.945448e-01 -0.000000e+00
    outer loop
      vertex   7.087065e+00  8.836034e-01 -6.000000e-03
      vertex   6.854118e+00  1.000000e+00 -6.000000e-03
      vertex   7.087065e+00  8.836034e-01  4.940000e-01
    endloop
  endfacet
  facet normal  3.338068e-01  9.426415e-01 -0.000000e+00
    outer loop
      vertex   6.854118e+00  1.000000e+00 -6.000000e-03
      vertex  -3.000000e+00  4.489526e+00 -6.000000e-03
      vertex   6.854118e+00  1.000000e+00  4.940000e-01
    endloop
  endfacet
  facet normal  3.338068e-01  9.426415e-01  0.000000e+00
    outer loop
      vertex   6.854118e+00  1.000000e+00  4.940000e-01
      vertex  -3.000000e+00  4.489526e+00 -6.000000e-03
      vertex  -3.000000e+00  4.489526e+00  4.940000e-01
    endloop
  endfacet
  facet normal -1.000000e+00  0.000000e+00  0.000000e+00
    outer loop
      vertex  -3.000000e+00  4.489526e+00 -6.000000e-03
      vertex  -3.000000e+00 -4.489526e+00 -6.000000e-03
      vertex  -3.000000e+00 -4.489526e+00  4.940000e-01
    endloop
  endfacet
  facet normal -1.000000e+00  0.000000e+00  0.000000e+00
    outer loop
      vertex  -3.000000e+00  4.489526e+00 -6.000000e-03
      vertex  -3.000000e+00 -4.489526e+00  4.940000e-01
      vertex  -3.000000e+00  4.489526e+00  4.940000e-01
    endloop
  endfacet
  facet normal  3.338068e-01 -9.426415e-01  0.000000e+00
    outer loop
      vertex  -3.000000e+00 -4.489526e+00 -6.000000e-03
      vertex   6.854118e+00 -1.000000e+00 -6.000000e-03
      vertex   6.854118e+00 -1.000000e+00  4.940000e-01
    endloop
  endfacet
  facet normal  3.338068e-01 -9.426415e-01  0.000000e+00
    outer loop
      vertex  -3.000000e+00 -4.489526e+00 -6.000000e-03
      vertex   6.854118e+00 -1.000000e+00  4.940000e-01
      vertex  -3.000000e+00 -4.489526e+00  4.940000e-01
    endloop
  endfacet
  facet normal  0.000000e+00  0.000000e+00 -1.000000e+00
    outer loop
      vertex  -3.000000e+00  4.489526e+00 -6.000000e-03
      vertex   6.854118e+00 -1.000000e+00 -6.000000e-03
      vertex  -3.000000e+00 -4.489526e+00 -6.000000e-03
    endloop
  endfacet
  facet normal  0.000000e+00  0.000000e+00 -1.000000e+00
    outer loop
      vertex   7.087065e+00 -8.836034e-01 -6.000000e-03
      vertex   7.434930e+00 -5.013049e-01 -6.000000e-03
      vertex   7.284636e+00 -7.139645e-01 -6.000000e-03
    endloop
  endfacet
  facet normal  0.000000e+00  0.000000e+00 -1.000000e+00
    outer loop
      vertex   6.854118e+00 -1.000000e+00 -6.000000e-03
      vertex   7.528887e+00 -2.584387e-01 -6.000000e-03
      vertex   7.087065e+00 -8.836034e-01 -6.000000e-03
    endloop
  endfacet
  facet normal  0.000000e+00  0.000000e+00 -1.000000e+00
    outer loop
      vertex   7.087065e+00 -8.836034e-01 -6.000000e-03
      vertex   7.528887e+00 -2.584387e-01 -6.000000e-03
      vertex   7.434930e+00 -5.013049e-01 -6.000000e-03
    endloop
  endfacet
  facet normal  0.000000e+00  0.000000e+00 -1.000000e+00
    outer loop
      vertex   6.854118e+00 -1.000000e+00 -6.000000e-03
      vertex   7.560849e+00 -2.598330e-16 -6.000000e-03
      vertex   7.528887e+00 -2.584387e-01 -6.000000e-03
    endloop
  endfacet
  facet normal  0.000000e+00  0.000000e+00 -1.000000e+00
    outer loop
      vertex  -3.000000e+00  4.489526e+00 -6.000000e-03
      vertex   6.854118e+00  1.000000e+00 -6.000000e-03
      vertex   6.854118e+00 -1.000000e+00 -6.000000e-03
    endloop
  endfacet
  facet normal  0.000000e+00  0.000000e+00 -1.000000e+00
    outer loop
      vertex   7.560849e+00 -2.598330e-16 -6.000000e-03
      vertex   7.284636e+00  7.139645e-01 -6.000000e-03
      vertex   7.528887e+00  2.584387e-01 -6.000000e-03
    endloop
  endfacet
  facet normal  0.000000e+00  0.000000e+00 -1.000000e+00
    outer loop
      vertex   7.528887e+00  2.584387e-01 -6.000000e-03
      vertex   7.284636e+00  7.139645e-01 -6.000000e-03
      vertex   7.434930e+00  5.013049e-01 -6.000000e-03
    endloop
  endfacet
  facet normal -0.000000e+00 -0.000000e+00 -1.000000e+00
    outer loop
      vertex   7.087065e+00  8.836034e-01 -6.000000e-03
      vertex   7.284636e+00  7.139645e-01 -6.000000e-03
      vertex   6.854118e+00  1.000000e+00 -6.000000e-03
    endloop
  endfacet
  facet normal  0.000000e+00  0.000000e+00 -1.000000e+00
    outer loop
      vertex   6.854118e+00 -1.000000e+00 -6.000000e-03
      vertex   7.284636e+00  7.139645e-01 -6.000000e-03
      vertex   7.560849e+00 -2.598330e-16 -6.000000e-03
    endloop
  endfacet
  facet normal  0.000000e+00  0.000000e+00 -1.000000e+00
    outer loop
      vertex   6.854118e+00  1.000000e+00 -6.000000e-03
      vertex   7.284636e+00  7.139645e-01 -6.000000e-03
      vertex   6.854118e+00 -1.000000e+00 -6.000000e-03
    endloop
  endfacet
  facet normal  0.000000e+00  0.000000e+00  1.000000e+00
    outer loop
      vertex   6.854118e+00 -1.000000e+00  4.940000e-01
      vertex  -3.000000e+00  4.489526e+00  4.940000e-01
      vertex  -3.000000e+00 -4.489526e+00  4.940000e-01
    endloop
  endfacet
  facet normal  0.000000e+00  0.000000e+00  1.000000e+00
    outer loop
      vertex   7.434930e+00 -5.013049e-01  4.940000e-01
      vertex   7.087065e+00 -8.836034e-01  4.940000e-01
      vertex   7.284636e+00 -7.139645e-01  4.940000e-01
    endloop
  endfacet
  facet normal  0.000000e+00  0.000000e+00  1.000000e+00
    outer loop
      vertex   7.528887e+00 -2.584387e-01  4.940000e-01
      vertex   6.854118e+00 -1.000000e+00  4.940000e-01
      vertex   7.087065e+00 -8.836034e-01  4.940000e-01
    endloop
  endfacet
  facet normal  0.000000e+00  0.000000e+00  1.000000e+00
    outer loop
      vertex   7.528887e+00 -2.584387e-01  4.940000e-01
      vertex   7.087065e+00 -8.836034e-01  4.940000e-01
      vertex   7.434930e+00 -5.013049e-01  4.940000e-01
    endloop
  endfacet
  facet normal  0.000000e+00  0.000000e+00  1.000000e+00
    outer loop
      vertex   7.560849e+00 -2.598330e-16  4.940000e-01
      vertex   6.854118e+00 -1.000000e+00  4.940000e-01
      vertex   7.528887e+00 -2.584387e-01  4.940000e-01
    endloop
  endfacet
  facet normal  0.000000e+00  0.000000e+00  1.000000e+00
    outer loop
      vertex   6.854118e+00  1.000000e+00  4.940000e-01
      vertex  -3.000000e+00  4.489526e+00  4.940000e-01
      vertex   6.854118e+00 -1.000000e+00  4.940000e-01
    endloop
  endfacet
  facet normal  0.000000e+00  0.000000e+00  1.000000e+00
    outer loop
      vertex   7.284636e+00  7.139645e-01  4.940000e-01
      vertex   7.560849e+00 -2.598330e-16  4.940000e-01
      vertex   7.528887e+00  2.584387e-01  4.940000e-01
    endloop
  endfacet
  facet normal  0.000000e+00  0.000000e+00  1.000000e+00
    outer loop
      vertex   7.284636e+00  7.139645e-01  4.940000e-01
      vertex   7.528887e+00  2.584387e-01  4.940000e-01
      vertex   7.434930e+00  5.013049e-01  4.940000e-01
    endloop
  endfacet
  facet normal  0.000000e+00  0.000000e+00  1.000000e+00
    outer loop
      vertex   7.284636e+00  7.139645e-01  4.940000e-01
      vertex   7.087065e+00  8.836034e-01  4.940000e-01
      vertex   6.854118e+00  1.000000e+00  4.940000e-01
    endloop
  endfacet
  facet normal  0.000000e+00  0.000000e+00  1.000000e+00
    outer loop
      vertex   7.284636e+00  7.139645e-01  4.940000e-01
      vertex   6.854118e+00 -1.000000e+00  4.940000e-01
      vertex   7.560849e+00 -2.598330e-16  4.940000e-01
    endloop
  endfacet
  facet normal  0.000000e+00  0.000000e+00  1.000000e+00
    outer loop
      vertex   7.284636e+00  7.139645e-01  4.940000e-01
      vertex   6.854118e+00  1.000000e+00  4.940000e-01
      vertex   6.854118e+00 -1.000000e+00  4.940000e-01
    endloop
  endfacet
endsolid vcg
